<?xml version="1.0" encoding="UTF-8"?>
<svg id="Calque_1" xmlns="http://www.w3.org/2000/svg" version="1.1" viewBox="0 0 1024 1024">
  <!-- Generator: Adobe Illustrator 29.2.0, SVG Export Plug-In . SVG Version: 2.1.0 Build 108)  -->
  <defs>
    <style>
      .st0 {
        fill: #ccc;
        fill-opacity: .2;
        stroke: #000;
      }
    </style>
  </defs>
  <polygon class="st0" points="485.9 606.9 443.1 558.5 407.9 638.1 485.9 606.9"/>
  <polygon class="st0" points="407.9 638.1 398.6 681.8 417.4 683.7 407.9 638.1"/>
  <polygon class="st0" points="407.9 638.1 417.4 683.7 437 692.9 407.9 638.1"/>
  <polygon class="st0" points="620 681.8 648.8 660.6 603.1 637.6 620 681.8"/>
  <polygon class="st0" points="641.4 614.3 603.1 637.6 648.8 660.6 641.4 614.3"/>
  <polygon class="st0" points="603.1 637.6 641.4 614.3 588.4 582.2 603.1 637.6"/>
  <polygon class="st0" points="512.8 637 588.4 582.2 485.9 606.9 512.8 637"/>
  <polygon class="st0" points="567.2 558.2 560.4 499.3 443.1 558.5 567.2 558.2"/>
  <polygon class="st0" points="567.2 558.2 640.8 536.4 560.4 499.3 567.2 558.2"/>
  <polygon class="st0" points="532.7 655.2 437 692.9 461.9 716.5 532.7 655.2"/>
  <polygon class="st0" points="407.9 638.1 437 692.9 512.8 637 407.9 638.1"/>
  <polygon class="st0" points="512.8 637 437 692.9 532.7 655.2 512.8 637"/>
  <polygon class="st0" points="485.9 606.9 407.9 638.1 512.8 637 485.9 606.9"/>
  <polygon class="st0" points="567.2 558.2 443.1 558.5 485.9 606.9 567.2 558.2"/>
  <polygon class="st0" points="542.6 715.5 463.8 759.1 517.1 784.5 542.6 715.5"/>
  <polygon class="st0" points="461.9 716.5 463.8 759.1 542.6 715.5 461.9 716.5"/>
  <polygon class="st0" points="542.6 715.5 517.1 784.5 570.5 758.7 542.6 715.5"/>
  <polygon class="st0" points="536.3 686.2 461.9 716.5 542.6 715.5 536.3 686.2"/>
  <polygon class="st0" points="542.6 715.5 570.5 758.7 620 681.8 542.6 715.5"/>
  <polygon class="st0" points="532.7 655.2 461.9 716.5 536.3 686.2 532.7 655.2"/>
  <polygon class="st0" points="620 681.8 536.3 686.2 542.6 715.5 620 681.8"/>
  <polygon class="st0" points="532.7 655.2 536.3 686.2 603.1 637.6 532.7 655.2"/>
  <polygon class="st0" points="603.1 637.6 536.3 686.2 620 681.8 603.1 637.6"/>
  <polygon class="st0" points="648.8 660.6 620 681.8 668 713.9 648.8 660.6"/>
  <polygon class="st0" points="567.2 558.2 485.9 606.9 588.4 582.2 567.2 558.2"/>
  <polygon class="st0" points="640.8 536.4 588.4 582.2 641.4 614.3 640.8 536.4"/>
  <polygon class="st0" points="463.8 759.1 469.7 795.5 517.1 784.5 463.8 759.1"/>
  <polygon class="st0" points="470.1 492.1 443.1 558.5 560.4 499.3 470.1 492.1"/>
  <polygon class="st0" points="620 681.8 570.5 758.7 620.1 735.4 620 681.8"/>
  <polygon class="st0" points="588.4 582.2 512.8 637 532.7 655.2 588.4 582.2"/>
  <polygon class="st0" points="588.4 582.2 532.7 655.2 603.1 637.6 588.4 582.2"/>
  <polygon class="st0" points="567.2 558.2 588.4 582.2 640.8 536.4 567.2 558.2"/>
  <polygon class="st0" points="283.4 418.8 465.1 377.4 304.5 385.8 283.4 418.8"/>
  <polygon class="st0" points="218.1 494.8 199.4 432.3 192 477.3 218.1 494.8"/>
  <polygon class="st0" points="271.7 498.6 326.2 491 283.4 418.8 271.7 498.6"/>
  <polygon class="st0" points="218.1 494.8 271.7 498.6 241.9 435 218.1 494.8"/>
  <polygon class="st0" points="283.4 418.8 470.1 492.1 450.5 413.2 283.4 418.8"/>
  <polygon class="st0" points="326.2 491 470.1 492.1 283.4 418.8 326.2 491"/>
  <polygon class="st0" points="241.9 435 271.7 498.6 283.4 418.8 241.9 435"/>
  <polygon class="st0" points="199.4 432.3 218.1 494.8 241.9 435 199.4 432.3"/>
  <polygon class="st0" points="199.4 432.3 241.9 435 237.8 378.1 199.4 432.3"/>
  <polygon class="st0" points="241.9 435 283.4 418.8 237.8 378.1 241.9 435"/>
  <polygon class="st0" points="237.8 378.1 283.4 418.8 304.5 385.8 237.8 378.1"/>
  <polygon class="st0" points="199.4 432.3 237.8 378.1 200.7 404.1 199.4 432.3"/>
  <polygon class="st0" points="450.5 413.2 465.1 377.4 283.4 418.8 450.5 413.2"/>
  <polygon class="st0" points="201.4 366.9 200.7 404.1 237.8 378.1 201.4 366.9"/>
  <polygon class="st0" points="283.5 645.3 293.2 639.1 268 627.4 283.5 645.3"/>
  <polygon class="st0" points="229.6 633.8 268 627.4 236.9 614.9 229.6 633.8"/>
  <polygon class="st0" points="308.4 610.8 255.6 549 254.9 585.9 308.4 610.8"/>
  <polygon class="st0" points="268 627.4 254.9 585.9 217 571.2 268 627.4"/>
  <polygon class="st0" points="208.1 542.8 219.7 499.1 193.5 502 208.1 542.8"/>
  <polygon class="st0" points="272.5 498.7 255.6 549 315.1 550.1 272.5 498.7"/>
  <polygon class="st0" points="192 477.3 191.9 491.2 218.1 494.8 192 477.3"/>
  <polygon class="st0" points="228.6 605.1 236.9 614.9 268 627.4 228.6 605.1"/>
  <polygon class="st0" points="228.6 605.1 268 627.4 217 571.2 228.6 605.1"/>
  <polygon class="st0" points="229.6 633.8 219.7 654.1 272.3 660 229.6 633.8"/>
  <polygon class="st0" points="283.5 645.3 268 627.4 272.3 660 283.5 645.3"/>
  <polygon class="st0" points="315.1 550.1 365.1 605.8 443.1 558.5 315.1 550.1"/>
  <polygon class="st0" points="326.2 491 443.1 558.5 470.1 492.1 326.2 491"/>
  <polygon class="st0" points="293.4 639 351.5 637.1 308.4 610.8 293.4 639"/>
  <polygon class="st0" points="315.1 550.1 308.4 610.8 365.1 605.8 315.1 550.1"/>
  <polygon class="st0" points="308.4 610.8 351.5 637.1 365.1 605.8 308.4 610.8"/>
  <polygon class="st0" points="351.5 637.1 397.7 681.9 407.9 638.1 351.5 637.1"/>
  <polygon class="st0" points="351.9 664 397.7 681.9 351.5 637.1 351.9 664"/>
  <polygon class="st0" points="315.1 550.1 326.2 491 272.5 498.7 315.1 550.1"/>
  <polygon class="st0" points="315.1 550.1 443.1 558.5 326.2 491 315.1 550.1"/>
  <polygon class="st0" points="443.1 558.5 365.1 605.8 407.9 638.1 443.1 558.5"/>
  <polygon class="st0" points="219.7 499.1 255.6 549 272.5 498.7 219.7 499.1"/>
  <polygon class="st0" points="219.7 499.1 221 529.6 255.6 549 219.7 499.1"/>
  <polygon class="st0" points="308.4 610.8 315.1 550.1 255.6 549 308.4 610.8"/>
  <polygon class="st0" points="351.5 637.1 407.9 638.1 365.1 605.8 351.5 637.1"/>
  <polygon class="st0" points="219.7 499.1 208.1 542.8 221 529.6 219.7 499.1"/>
  <polygon class="st0" points="254.9 585.9 255.6 549 221 529.6 254.9 585.9"/>
  <polygon class="st0" points="217 571.2 221 529.6 208.1 542.8 217 571.2"/>
  <polygon class="st0" points="254.9 585.9 221 529.6 217 571.2 254.9 585.9"/>
  <polygon class="st0" points="268 627.4 308.4 610.8 254.9 585.9 268 627.4"/>
  <polygon class="st0" points="351.9 664 351.5 637.1 293.4 639 351.9 664"/>
  <polygon class="st0" points="308.4 610.8 268 627.4 293.2 639.1 308.4 610.8"/>
  <polygon class="st0" points="229.6 633.8 272.3 660 268 627.4 229.6 633.8"/>
  <polygon class="st0" points="253.4 676.1 272.3 660 219.7 654.1 253.4 676.1"/>
  <polygon class="st0" points="260.3 684 272.3 660 253.4 676.1 260.3 684"/>
  <polygon class="st0" points="503.4 392.1 504.6 443 650.8 428.6 503.4 392.1"/>
  <polygon class="st0" points="596.2 380.5 656.8 366.6 522.2 334.3 596.2 380.5"/>
  <polygon class="st0" points="661.2 329.9 625.6 291.2 545.1 295.8 661.2 329.9"/>
  <polygon class="st0" points="625.6 291.2 668 281.2 641.7 270.5 625.6 291.2"/>
  <polygon class="st0" points="625.6 291.2 626.7 265.1 618.8 251 625.6 291.2"/>
  <polygon class="st0" points="625.6 291.2 593.4 228.5 545.1 295.8 625.6 291.2"/>
  <polygon class="st0" points="450.5 413.2 503.4 392.1 465.1 377.4 450.5 413.2"/>
  <polygon class="st0" points="465.1 377.4 503.4 392.1 522.2 334.3 465.1 377.4"/>
  <polygon class="st0" points="593.4 228.5 625.6 291.2 618.8 251 593.4 228.5"/>
  <polygon class="st0" points="450.5 413.2 470.1 492.1 504.6 443 450.5 413.2"/>
  <polygon class="st0" points="661.2 329.9 522.2 334.3 656.8 366.6 661.2 329.9"/>
  <polygon class="st0" points="661.2 329.9 545.1 295.8 522.2 334.3 661.2 329.9"/>
  <polygon class="st0" points="656.8 366.6 596.2 380.5 650.8 428.6 656.8 366.6"/>
  <polygon class="st0" points="596.2 380.5 522.2 334.3 503.4 392.1 596.2 380.5"/>
  <polygon class="st0" points="596.2 380.5 503.4 392.1 650.8 428.6 596.2 380.5"/>
  <polygon class="st0" points="503.4 392.1 450.5 413.2 504.6 443 503.4 392.1"/>
  <polygon class="st0" points="625.6 291.2 641.7 270.5 626.7 265.1 625.6 291.2"/>
  <polygon class="st0" points="650.8 428.6 504.6 443 646.6 468.4 650.8 428.6"/>
  <polygon class="st0" points="504.6 443 470.1 492.1 560.4 499.3 504.6 443"/>
  <polygon class="st0" points="620 681.8 620.1 735.4 668 713.9 620 681.8"/>
  <polygon class="st0" points="668 281.2 625.6 291.2 661.2 329.9 668 281.2"/>
  <polygon class="st0" points="504.6 443 560.4 499.3 646.6 468.4 504.6 443"/>
  <polygon class="st0" points="560.4 499.3 640.8 536.4 646.6 468.4 560.4 499.3"/>
  <polygon class="st0" points="421.6 313.6 465.1 377.4 473.8 282.9 421.6 313.6"/>
  <polygon class="st0" points="474.8 281.5 545.1 295.8 536.8 236.8 474.8 281.5"/>
  <polygon class="st0" points="545.1 295.8 593.4 228.5 554.2 237 545.1 295.8"/>
  <polygon class="st0" points="545.1 295.8 474.8 281.5 522.2 334.3 545.1 295.8"/>
  <polygon class="st0" points="522.2 334.3 473.8 282.9 465.1 377.4 522.2 334.3"/>
  <polygon class="st0" points="465.1 377.4 450.2 301.5 304.5 385.8 465.1 377.4"/>
  <polygon class="st0" points="304.5 385.8 450.2 301.5 194.4 311.5 304.5 385.8"/>
  <polygon class="st0" points="304.5 385.8 194.4 311.5 237.8 378.1 304.5 385.8"/>
  <polygon class="st0" points="237.8 378.1 194.4 311.5 209.7 353.4 237.8 378.1"/>
</svg>